<?xml version="1.0" standalone="no"?><!DOCTYPE svg PUBLIC "-//W3C//DTD SVG 1.1//EN" "http://www.w3.org/Graphics/SVG/1.1/DTD/svg11.dtd"><svg t="1703212276627" class="icon" viewBox="0 0 1024 1024" version="1.1" xmlns="http://www.w3.org/2000/svg" p-id="43358" xmlns:xlink="http://www.w3.org/1999/xlink" width="200" height="200"><path d="M0 0m228.968944 0l566.062112 0q228.968944 0 228.968944 228.968944l0 566.062112q0 228.968944-228.968944 228.968944l-566.062112 0q-228.968944 0-228.968944-228.968944l0-566.062112q0-228.968944 228.968944-228.968944Z" fill="#FF9B5B" p-id="43359" data-spm-anchor-id="a313x.collections_detail.0.i33.24c93a81MxjVqC" class="selected"></path><path d="M518.390778 826.832298C692.250713 826.832298 833.192547 685.876472 833.192547 512S692.250713 197.167702 518.390778 197.167702c-173.858663 0-314.800497 140.955826-314.800497 314.832298 0 47.222301 10.396462 92.01753 29.023085 132.219389 1.932243 4.169779 1.600239 9.058266-0.997286 12.848974l-28.656736 41.812273c-4.621357 6.743135 0.19208 15.906981 8.364999 15.929878l60.547021 0.170455c3.734738 0.010176 7.264676 1.671473 9.726092 4.478887C339.296358 785.276979 423.99197 826.832298 518.390778 826.832298z" fill="#FFFFFF" p-id="43360"></path><path d="M391.791304 427.408696m25.440994 0l0 0q25.440994 0 25.440994 25.440993l0 117.028572q0 25.440994-25.440994 25.440994l0 0q-25.440994 0-25.440994-25.440994l0-117.028572q0-25.440994 25.440994-25.440993Z" fill="#FF9B5B" p-id="43361" data-spm-anchor-id="a313x.collections_detail.0.i36.24c93a81MxjVqC" class="selected"></path><path d="M596.591304 427.408696m25.440994 0l0 0q25.440994 0 25.440994 25.440993l0 117.028572q0 25.440994-25.440994 25.440994l0 0q-25.440994 0-25.440994-25.440994l0-117.028572q0-25.440994 25.440994-25.440993Z" fill="#FF9B5B" p-id="43362" data-spm-anchor-id="a313x.collections_detail.0.i35.24c93a81MxjVqC" class="selected"></path></svg>