<?xml version="1.0" standalone="no"?><!DOCTYPE svg PUBLIC "-//W3C//DTD SVG 1.1//EN" "http://www.w3.org/Graphics/SVG/1.1/DTD/svg11.dtd"><svg t="1703226342965" class="icon" viewBox="0 0 1024 1024" version="1.1" xmlns="http://www.w3.org/2000/svg" p-id="29219" xmlns:xlink="http://www.w3.org/1999/xlink" width="200" height="200"><path d="M512.5 750.6c-141.5 0-257.3-115.8-257.3-257.3v-172C255.2 179.8 371 64 512.5 64s257.3 115.8 257.3 257.3v172c0 141.5-115.8 257.3-257.3 257.3z" fill="#3E8BF8" opacity=".7" p-id="29220"></path><path d="M512.5 801.9c-42.9 0-84.6-8.5-124-25.2-37.9-16.1-72-39.1-101.3-68.4C257.9 679 234.9 645 218.8 607c-16.7-39.4-25.2-81.1-25.2-124v-10.7c0-41.4 33.6-75 75-75s75 33.6 75 75V483c0 93.1 75.8 168.9 168.9 168.9S681.4 576.2 681.4 483v-10.7c0-41.4 33.6-75 75-75s75 33.6 75 75V483c0 42.9-8.5 84.6-25.2 124-16.1 37.9-39.1 72-68.4 101.3-29.3 29.3-63.3 52.3-101.3 68.4-39.4 16.8-81.1 25.2-124 25.2z" fill="#3E8BF8" opacity=".7" p-id="29221"></path><path d="M455.4 703.9h114.2v138.3H455.4z" fill="#3E8BF8" opacity=".7" p-id="29222"></path><path d="M641.1 956.3H383.9c-31.5 0-57.1-25.6-57.1-57.1s25.6-57.1 57.1-57.1H641c31.5 0 57.1 25.6 57.1 57.1s-25.5 57.1-57 57.1z" fill="#3E8BF8" opacity=".7" p-id="29223"></path><path d="M590.5 332.5h-156c-22.1 0-40-17.9-40-40s17.9-40 40-40h156c22.1 0 40 17.9 40 40s-17.9 40-40 40zM590.5 504.5h-156c-22.1 0-40-17.9-40-40s17.9-40 40-40h156c22.1 0 40 17.9 40 40s-17.9 40-40 40z" fill="#FFFFFF" p-id="29224"></path></svg>