<?xml version="1.0" standalone="no"?><!DOCTYPE svg PUBLIC "-//W3C//DTD SVG 1.1//EN" "http://www.w3.org/Graphics/SVG/1.1/DTD/svg11.dtd"><svg t="1703211820937" class="icon" viewBox="0 0 1024 1024" version="1.1" xmlns="http://www.w3.org/2000/svg" p-id="4274" xmlns:xlink="http://www.w3.org/1999/xlink" width="200" height="200"><path d="M0 0m228.968944 0l566.062112 0q228.968944 0 228.968944 228.968944l0 566.062112q0 228.968944-228.968944 228.968944l-566.062112 0q-228.968944 0-228.968944-228.968944l0-566.062112q0-228.968944 228.968944-228.968944Z" fill="#FF9B5B" p-id="4275"></path><path d="M491.01118 760.685714h293.207454c12.29436 0 22.26087 9.966509 22.260869 22.26087s-9.966509 22.26087-22.260869 22.260869H491.01118v-44.521739z" fill="#FFFFFF" opacity=".5" p-id="4276"></path><path d="M218.792547 511.363975a293.843478 292.571429 90 1 0 585.142857 0 293.843478 292.571429 90 1 0-585.142857 0Z" fill="#FFFFFF" p-id="4277"></path><path d="M365.714286 506.911801m-51.518013 0a51.518012 51.518012 0 1 0 103.036025 0 51.518012 51.518012 0 1 0-103.036025 0Z" fill="#FF9B5B" p-id="4278"></path><path d="M509.455901 358.081988m-51.518013 0a51.518012 51.518012 0 1 0 103.036025 0 51.518012 51.518012 0 1 0-103.036025 0Z" fill="#FF9B5B" p-id="4279"></path><path d="M512 668.462112m-51.518012 0a51.518012 51.518012 0 1 0 103.036024 0 51.518012 51.518012 0 1 0-103.036024 0Z" fill="#FF9B5B" p-id="4280"></path><path d="M660.829814 506.911801m-51.518013 0a51.518012 51.518012 0 1 0 103.036025 0 51.518012 51.518012 0 1 0-103.036025 0Z" fill="#FF9B5B" p-id="4281"></path></svg>