<?xml version="1.0" standalone="no"?><!DOCTYPE svg PUBLIC "-//W3C//DTD SVG 1.1//EN" "http://www.w3.org/Graphics/SVG/1.1/DTD/svg11.dtd"><svg t="1703226217505" class="icon" viewBox="0 0 1024 1024" version="1.1" xmlns="http://www.w3.org/2000/svg" p-id="23991" xmlns:xlink="http://www.w3.org/1999/xlink" width="200" height="200"><path d="M0 0h1024v1024H0V0z" fill="#202425" opacity=".01" p-id="23992"></path><path d="M102.4 102.4a68.266667 68.266667 0 0 1 68.266667-68.266667h682.666666a68.266667 68.266667 0 0 1 68.266667 68.266667v170.666667a34.133333 34.133333 0 0 1-34.133333 34.133333H136.533333a34.133333 34.133333 0 0 1-34.133333-34.133333V102.4z" fill="#FFAA44" p-id="23993"></path><path d="M102.4 204.8a68.266667 68.266667 0 0 1 68.266667-68.266667h682.666666a68.266667 68.266667 0 0 1 68.266667 68.266667v724.48a68.266667 68.266667 0 0 1-89.873067 64.750933l-298.154666-99.362133a68.266667 68.266667 0 0 0-43.144534 0l-298.1888 99.396267A68.266667 68.266667 0 0 1 102.4 929.245867V204.8z" fill="#FF7744" p-id="23994"></path><path d="M682.666667 238.933333a34.133333 34.133333 0 0 1 34.133333 34.133334v34.133333h34.133333a34.133333 34.133333 0 1 1 68.266667 0v34.133333a34.133333 34.133333 0 0 1-34.133333 34.133334h-68.266667v207.735466l34.133333-34.133333V494.933333a34.133333 34.133333 0 1 1 68.266667 0v68.266667a34.133333 34.133333 0 0 1-10.001067 24.132267l-62.702933 62.737066 57.514667 38.331734a34.133333 34.133333 0 0 1-37.888 56.797866l-68.881067-45.909333-41.642667 41.642667a34.133333 34.133333 0 0 1-48.264533-48.264534l41.301333-41.301333A33.518933 33.518933 0 0 1 648.533333 648.533333v-273.066666h-273.066666v273.066666a102.4 102.4 0 0 1-102.4 102.4H238.933333a34.133333 34.133333 0 1 1 0-68.266666h34.133334a34.133333 34.133333 0 0 0 34.133333-34.133334v-273.066666a68.266667 68.266667 0 0 1 68.266667-68.266667h273.066666V273.066667a34.133333 34.133333 0 0 1 34.133334-34.133334zM238.933333 307.2a34.133333 34.133333 0 0 1 34.133334 34.133333v68.266667a34.133333 34.133333 0 1 1-68.266667 0v-68.266667a34.133333 34.133333 0 0 1 34.133333-34.133333z m170.666667 136.533333a34.133333 34.133333 0 0 1 34.133333-34.133333h136.533334a34.133333 34.133333 0 1 1 0 68.266667h-136.533334a34.133333 34.133333 0 0 1-34.133333-34.133334z m-170.666667 34.133334a34.133333 34.133333 0 0 1 34.133334 34.133333v102.4a34.133333 34.133333 0 1 1-68.266667 0v-102.4a34.133333 34.133333 0 0 1 34.133333-34.133333z m170.666667 102.4a68.266667 68.266667 0 0 1 68.266667-68.266667h68.266666a68.266667 68.266667 0 0 1 68.266667 68.266667v34.133333a68.266667 68.266667 0 0 1-68.266667 68.266667h-68.266666a68.266667 68.266667 0 0 1-68.266667-68.266667v-34.133333z m136.533333 0h-68.266666v34.133333h68.266666v-34.133333z" fill="#FFFFFF" p-id="23995"></path></svg>