<?xml version="1.0" standalone="no"?><!DOCTYPE svg PUBLIC "-//W3C//DTD SVG 1.1//EN" "http://www.w3.org/Graphics/SVG/1.1/DTD/svg11.dtd"><svg t="1703212112813" class="icon" viewBox="0 0 1024 1024" version="1.1" xmlns="http://www.w3.org/2000/svg" p-id="32631" xmlns:xlink="http://www.w3.org/1999/xlink" width="200" height="200"><path d="M0 0m228.968944 0l566.062112 0q228.968944 0 228.968944 228.968944l0 566.062112q0 228.968944-228.968944 228.968944l-566.062112 0q-228.968944 0-228.968944-228.968944l0-566.062112q0-228.968944 228.968944-228.968944Z" fill="#dc3f2a" p-id="32632" data-spm-anchor-id="a313x.collections_detail.0.i21.24c93a81pnlHqb" class="selected"></path><path d="M582.598758 528.99204c-13.568954-7.834554-13.568954-27.419031 0-35.252313l227.060869-131.093625c13.568954-7.834554 30.529193 1.957684 30.529193 17.62552v262.18725c0 15.667836-16.960239 25.460075-30.529193 17.626793L582.598758 528.99204z" fill="#FFFFFF" opacity=".5" p-id="32633"></path><path d="M249.321739 306.563975m38.161491 0l334.549068 0q38.161491 0 38.161491 38.161491l0 334.549068q0 38.161491-38.161491 38.161491l-334.549068 0q-38.161491 0-38.161491-38.161491l0-334.549068q0-38.161491 38.161491-38.161491Z" fill="#FFFFFF" p-id="32634"></path></svg>