<?xml version="1.0" standalone="no"?><!DOCTYPE svg PUBLIC "-//W3C//DTD SVG 1.1//EN" "http://www.w3.org/Graphics/SVG/1.1/DTD/svg11.dtd"><svg t="1703226069712" class="icon" viewBox="0 0 1024 1024" version="1.1" xmlns="http://www.w3.org/2000/svg" p-id="5333" xmlns:xlink="http://www.w3.org/1999/xlink" width="200" height="200"><path d="M959.616766 818.036542 64.383234 818.036542 64.383234 595.824597C73.716906 599.250461 83.760998 601.114571 94.224351 601.114571 143.666734 601.114571 183.747705 559.492024 183.747705 508.148011 183.747705 456.803998 143.666734 415.181452 94.224351 415.181452 83.760998 415.181452 73.716906 417.045563 64.383234 420.471427L64.383234 198.259481 959.616766 198.259481 959.616766 420.471427C950.283093 417.045563 940.239001 415.181452 929.775649 415.181452 880.333266 415.181452 840.252295 456.803998 840.252295 508.148011 840.252295 559.492024 880.333266 601.114571 929.775649 601.114571 940.239001 601.114571 950.283093 599.250461 959.616766 595.824597L959.616766 818.036542ZM601.523353 296.119017 601.523353 328.738862 661.205589 328.738862 661.205589 296.119017 661.205589 230.879326 661.205589 198.259481 601.523353 198.259481 601.523353 230.879326 601.523353 296.119017ZM601.523353 459.218244 601.523353 491.838089 661.205589 491.838089 661.205589 459.218244 661.205589 393.978553 661.205589 361.358708 601.523353 361.358708 601.523353 393.978553 601.523353 459.218244ZM601.523353 622.31747 601.523353 654.937316 661.205589 654.937316 661.205589 622.31747 661.205589 557.07778 661.205589 524.457934 601.523353 524.457934 601.523353 557.07778 601.523353 622.31747ZM601.523353 785.416697 601.523353 818.036542 661.205589 818.036542 661.205589 785.416697 661.205589 720.177006 661.205589 687.557161 601.523353 687.557161 601.523353 720.177006 601.523353 785.416697Z" fill="#FC5143" p-id="5334"></path></svg>