<?xml version="1.0" standalone="no"?><!DOCTYPE svg PUBLIC "-//W3C//DTD SVG 1.1//EN" "http://www.w3.org/Graphics/SVG/1.1/DTD/svg11.dtd"><svg t="1703226183672" class="icon" viewBox="0 0 1024 1024" version="1.1" xmlns="http://www.w3.org/2000/svg" p-id="14596" xmlns:xlink="http://www.w3.org/1999/xlink" width="200" height="200"><path d="M512 512m-512 0a512 512 0 1 0 1024 0 512 512 0 1 0-1024 0Z" fill="#FEB833" p-id="14597"></path><path d="M324.408781 655.018925C505.290126 655.018925 651.918244 508.387706 651.918244 327.509463c0-152.138029-103.733293-280.047334-244.329811-316.853972C205.813923 52.463528 47.497011 213.017581 8.987325 415.981977 47.587706 553.880127 174.183098 655.018925 324.408781 655.018925z" fill="#FFFFFF" fill-opacity=".2" p-id="14598"></path><path d="M512 1024c282.766631 0 512-229.233369 512-512 0-31.765705-2.891385-62.853911-8.433853-93.018889C928.057169 336.0999 809.874701 285.26268 679.824375 285.26268c-269.711213 0-488.357305 218.645317-488.357305 488.357305 0 54.959576 9.084221 107.802937 25.822474 157.10377C300.626556 989.489417 402.283167 1024 512 1024z" fill="#FFFFFF" fill-opacity=".15" p-id="14599"></path><path d="M732.535958 756.566238c36.389596 0 65.889478-29.499882 65.889477-65.889478 0 36.389596 29.502983 65.889478 65.889478 65.889478-17.053747 0-65.889478 29.502983-65.889478 65.889477 0-36.386495-29.499882-65.889478-65.889477-65.889477zM159.685087 247.279334c25.686819 0 46.51022-20.8234 46.51022-46.51022 0 25.686819 20.8234 46.51022 46.510219 46.51022-12.03607 0-46.51022 20.8234-46.510219 46.510219 0-25.686819-20.8234-46.51022-46.51022-46.510219z" fill="#FFFFFF" fill-opacity=".5" p-id="14600"></path><path d="M206.195307 333.32324c8.562531 0 15.503407-6.940875 15.503406-15.503407 0 8.562531 6.940875 15.503407 15.503407 15.503407-4.012282 0-15.503407 6.940875-15.503407 15.503406 0-8.562531-6.940875-15.503407-15.503406-15.503406z" fill="#FFFFFF" fill-opacity=".3" p-id="14601"></path><path d="M347.843731 235.284348A21.704769 21.704769 0 0 1 365.394362 226.349735h277.698568a21.702444 21.702444 0 0 1 17.021965 8.239285L823.38592 440.986646c12.774807 16.149899 11.325238 39.332142-3.364239 53.762714L547.533033 762.429626c-19.904048 19.554447-51.803083 19.554447-71.706356 0L202.312478 493.740863c-14.248406-13.998026-16.097187-36.31983-4.345604-52.471279l149.876857-205.985236z" fill="#FFFFFF" p-id="14602"></path><path d="M675.303582 425.995628c6.932348 7.230789 6.690495 18.711061-0.540294 25.643409L521.056315 598.998141c-7.146295 6.850955-18.466883 6.705998-25.434889-0.327122L349.621971 451.311915c-7.049399-7.116064-6.996687-18.598662 0.119376-25.648836 7.115288-7.050174 18.598662-6.996687 25.648061 0.118602l133.442471 134.685844 140.829069-135.012966c7.230014-6.931573 18.711061-6.68972 25.642634 0.541069z" fill="#FEC351" p-id="14603"></path></svg>